<mxfile host="app.diagrams.net" agent="Mozilla/5.0 (Windows NT 10.0; Win64; x64) AppleWebKit/537.36 (KHTML, like Gecko) Chrome/130.0.0.0 Safari/537.36" version="24.8.1">
  <diagram id="C5RBs43oDa-KdzZeNtuy" name="Page-1">
    <mxGraphModel dx="2049" dy="1054" grid="1" gridSize="10" guides="1" tooltips="1" connect="1" arrows="1" fold="1" page="1" pageScale="1" pageWidth="827" pageHeight="1169" math="0" shadow="0">
      <root>
        <mxCell id="WIyWlLk6GJQsqaUBKTNV-0" />
        <mxCell id="WIyWlLk6GJQsqaUBKTNV-1" parent="WIyWlLk6GJQsqaUBKTNV-0" />
        <mxCell id="SPDf7aLE5SCh02iu1pOM-5" value="" style="edgeStyle=orthogonalEdgeStyle;rounded=0;orthogonalLoop=1;jettySize=auto;html=1;" edge="1" parent="WIyWlLk6GJQsqaUBKTNV-1" source="SPDf7aLE5SCh02iu1pOM-3" target="SPDf7aLE5SCh02iu1pOM-4">
          <mxGeometry relative="1" as="geometry" />
        </mxCell>
        <mxCell id="SPDf7aLE5SCh02iu1pOM-3" value="Nhập xâu chữ số" style="shape=parallelogram;perimeter=parallelogramPerimeter;whiteSpace=wrap;html=1;fixedSize=1;" vertex="1" parent="WIyWlLk6GJQsqaUBKTNV-1">
          <mxGeometry x="361" y="140" width="160" height="60" as="geometry" />
        </mxCell>
        <mxCell id="SPDf7aLE5SCh02iu1pOM-7" value="" style="edgeStyle=orthogonalEdgeStyle;rounded=0;orthogonalLoop=1;jettySize=auto;html=1;" edge="1" parent="WIyWlLk6GJQsqaUBKTNV-1" source="SPDf7aLE5SCh02iu1pOM-4" target="SPDf7aLE5SCh02iu1pOM-6">
          <mxGeometry relative="1" as="geometry" />
        </mxCell>
        <mxCell id="SPDf7aLE5SCh02iu1pOM-31" value="Đúng" style="edgeLabel;html=1;align=center;verticalAlign=middle;resizable=0;points=[];" vertex="1" connectable="0" parent="SPDf7aLE5SCh02iu1pOM-7">
          <mxGeometry x="-0.0095" relative="1" as="geometry">
            <mxPoint as="offset" />
          </mxGeometry>
        </mxCell>
        <mxCell id="SPDf7aLE5SCh02iu1pOM-11" value="" style="edgeStyle=orthogonalEdgeStyle;rounded=0;orthogonalLoop=1;jettySize=auto;html=1;entryX=0.5;entryY=0;entryDx=0;entryDy=0;" edge="1" parent="WIyWlLk6GJQsqaUBKTNV-1" source="SPDf7aLE5SCh02iu1pOM-4" target="SPDf7aLE5SCh02iu1pOM-14">
          <mxGeometry relative="1" as="geometry">
            <mxPoint x="441" y="450" as="targetPoint" />
          </mxGeometry>
        </mxCell>
        <mxCell id="SPDf7aLE5SCh02iu1pOM-12" value="Sai" style="edgeLabel;html=1;align=center;verticalAlign=middle;resizable=0;points=[];" vertex="1" connectable="0" parent="SPDf7aLE5SCh02iu1pOM-11">
          <mxGeometry x="-0.0199" y="-1" relative="1" as="geometry">
            <mxPoint as="offset" />
          </mxGeometry>
        </mxCell>
        <mxCell id="SPDf7aLE5SCh02iu1pOM-4" value="Số âm" style="rhombus;whiteSpace=wrap;html=1;" vertex="1" parent="WIyWlLk6GJQsqaUBKTNV-1">
          <mxGeometry x="361" y="240" width="160" height="80" as="geometry" />
        </mxCell>
        <mxCell id="SPDf7aLE5SCh02iu1pOM-13" style="edgeStyle=orthogonalEdgeStyle;rounded=0;orthogonalLoop=1;jettySize=auto;html=1;exitX=0.5;exitY=1;exitDx=0;exitDy=0;" edge="1" parent="WIyWlLk6GJQsqaUBKTNV-1" source="SPDf7aLE5SCh02iu1pOM-14">
          <mxGeometry relative="1" as="geometry">
            <mxPoint x="710.9999999999998" y="380.0044827586207" as="sourcePoint" />
            <mxPoint x="441" y="450" as="targetPoint" />
            <Array as="points" />
          </mxGeometry>
        </mxCell>
        <mxCell id="SPDf7aLE5SCh02iu1pOM-6" value="Đánh dấu số âm" style="whiteSpace=wrap;html=1;" vertex="1" parent="WIyWlLk6GJQsqaUBKTNV-1">
          <mxGeometry x="606" y="250" width="120" height="60" as="geometry" />
        </mxCell>
        <mxCell id="SPDf7aLE5SCh02iu1pOM-17" value="" style="edgeStyle=orthogonalEdgeStyle;rounded=0;orthogonalLoop=1;jettySize=auto;html=1;entryX=1;entryY=0.5;entryDx=0;entryDy=0;" edge="1" parent="WIyWlLk6GJQsqaUBKTNV-1" source="SPDf7aLE5SCh02iu1pOM-14">
          <mxGeometry relative="1" as="geometry">
            <mxPoint x="261" y="430" as="targetPoint" />
          </mxGeometry>
        </mxCell>
        <mxCell id="SPDf7aLE5SCh02iu1pOM-18" value="Sai" style="edgeLabel;html=1;align=center;verticalAlign=middle;resizable=0;points=[];" vertex="1" connectable="0" parent="SPDf7aLE5SCh02iu1pOM-17">
          <mxGeometry x="-0.0683" relative="1" as="geometry">
            <mxPoint as="offset" />
          </mxGeometry>
        </mxCell>
        <mxCell id="SPDf7aLE5SCh02iu1pOM-22" value="" style="edgeStyle=orthogonalEdgeStyle;rounded=0;orthogonalLoop=1;jettySize=auto;html=1;" edge="1" parent="WIyWlLk6GJQsqaUBKTNV-1" source="SPDf7aLE5SCh02iu1pOM-14" target="SPDf7aLE5SCh02iu1pOM-21">
          <mxGeometry relative="1" as="geometry" />
        </mxCell>
        <mxCell id="SPDf7aLE5SCh02iu1pOM-25" value="Đúng" style="edgeLabel;html=1;align=center;verticalAlign=middle;resizable=0;points=[];" vertex="1" connectable="0" parent="SPDf7aLE5SCh02iu1pOM-22">
          <mxGeometry x="-0.0276" y="-1" relative="1" as="geometry">
            <mxPoint x="1" y="-5" as="offset" />
          </mxGeometry>
        </mxCell>
        <mxCell id="SPDf7aLE5SCh02iu1pOM-27" value="" style="edgeStyle=orthogonalEdgeStyle;rounded=0;orthogonalLoop=1;jettySize=auto;html=1;" edge="1" parent="WIyWlLk6GJQsqaUBKTNV-1" source="SPDf7aLE5SCh02iu1pOM-21" target="SPDf7aLE5SCh02iu1pOM-26">
          <mxGeometry relative="1" as="geometry" />
        </mxCell>
        <mxCell id="SPDf7aLE5SCh02iu1pOM-21" value="Cập nhật giá trị số &lt;br&gt;và biến đếm" style="whiteSpace=wrap;html=1;" vertex="1" parent="WIyWlLk6GJQsqaUBKTNV-1">
          <mxGeometry x="361" y="530" width="160" height="60" as="geometry" />
        </mxCell>
        <mxCell id="SPDf7aLE5SCh02iu1pOM-28" style="edgeStyle=orthogonalEdgeStyle;rounded=0;orthogonalLoop=1;jettySize=auto;html=1;entryX=1;entryY=0.5;entryDx=0;entryDy=0;exitX=1;exitY=0.5;exitDx=0;exitDy=0;" edge="1" parent="WIyWlLk6GJQsqaUBKTNV-1">
          <mxGeometry relative="1" as="geometry">
            <mxPoint x="521" y="689.99" as="sourcePoint" />
            <mxPoint x="521" y="429.99" as="targetPoint" />
            <Array as="points">
              <mxPoint x="666" y="689.99" />
              <mxPoint x="666" y="429.99" />
            </Array>
          </mxGeometry>
        </mxCell>
        <mxCell id="SPDf7aLE5SCh02iu1pOM-29" value="Sai" style="edgeLabel;html=1;align=center;verticalAlign=middle;resizable=0;points=[];" vertex="1" connectable="0" parent="SPDf7aLE5SCh02iu1pOM-28">
          <mxGeometry x="0.0027" y="1" relative="1" as="geometry">
            <mxPoint x="1" y="1" as="offset" />
          </mxGeometry>
        </mxCell>
        <mxCell id="SPDf7aLE5SCh02iu1pOM-39" value="" style="edgeStyle=orthogonalEdgeStyle;rounded=0;orthogonalLoop=1;jettySize=auto;html=1;" edge="1" parent="WIyWlLk6GJQsqaUBKTNV-1" source="SPDf7aLE5SCh02iu1pOM-26" target="SPDf7aLE5SCh02iu1pOM-38">
          <mxGeometry relative="1" as="geometry" />
        </mxCell>
        <mxCell id="SPDf7aLE5SCh02iu1pOM-40" value="Đúng" style="edgeLabel;html=1;align=center;verticalAlign=middle;resizable=0;points=[];" vertex="1" connectable="0" parent="SPDf7aLE5SCh02iu1pOM-39">
          <mxGeometry x="-0.0095" relative="1" as="geometry">
            <mxPoint as="offset" />
          </mxGeometry>
        </mxCell>
        <mxCell id="SPDf7aLE5SCh02iu1pOM-26" value="Duyệt hết xâu" style="rhombus;whiteSpace=wrap;html=1;" vertex="1" parent="WIyWlLk6GJQsqaUBKTNV-1">
          <mxGeometry x="361" y="650" width="160" height="80" as="geometry" />
        </mxCell>
        <mxCell id="SPDf7aLE5SCh02iu1pOM-35" value="In thông báo &lt;br&gt;&quot;Inappropriate string&quot;." style="shape=parallelogram;perimeter=parallelogramPerimeter;whiteSpace=wrap;html=1;fixedSize=1;" vertex="1" parent="WIyWlLk6GJQsqaUBKTNV-1">
          <mxGeometry x="101" y="400" width="170" height="60" as="geometry" />
        </mxCell>
        <mxCell id="SPDf7aLE5SCh02iu1pOM-42" value="" style="edgeStyle=orthogonalEdgeStyle;rounded=0;orthogonalLoop=1;jettySize=auto;html=1;" edge="1" parent="WIyWlLk6GJQsqaUBKTNV-1" source="SPDf7aLE5SCh02iu1pOM-38" target="SPDf7aLE5SCh02iu1pOM-41">
          <mxGeometry relative="1" as="geometry" />
        </mxCell>
        <mxCell id="SPDf7aLE5SCh02iu1pOM-47" value="Đúng" style="edgeLabel;html=1;align=center;verticalAlign=middle;resizable=0;points=[];" vertex="1" connectable="0" parent="SPDf7aLE5SCh02iu1pOM-42">
          <mxGeometry y="-1" relative="1" as="geometry">
            <mxPoint as="offset" />
          </mxGeometry>
        </mxCell>
        <mxCell id="SPDf7aLE5SCh02iu1pOM-51" style="edgeStyle=orthogonalEdgeStyle;rounded=0;orthogonalLoop=1;jettySize=auto;html=1;exitX=0.5;exitY=1;exitDx=0;exitDy=0;entryX=0.5;entryY=0;entryDx=0;entryDy=0;" edge="1" parent="WIyWlLk6GJQsqaUBKTNV-1" source="SPDf7aLE5SCh02iu1pOM-38" target="SPDf7aLE5SCh02iu1pOM-48">
          <mxGeometry relative="1" as="geometry" />
        </mxCell>
        <mxCell id="SPDf7aLE5SCh02iu1pOM-38" value="Kiểm tra số âm" style="rhombus;whiteSpace=wrap;html=1;" vertex="1" parent="WIyWlLk6GJQsqaUBKTNV-1">
          <mxGeometry x="361" y="800" width="160" height="80" as="geometry" />
        </mxCell>
        <mxCell id="SPDf7aLE5SCh02iu1pOM-50" style="edgeStyle=orthogonalEdgeStyle;rounded=0;orthogonalLoop=1;jettySize=auto;html=1;exitX=0.5;exitY=1;exitDx=0;exitDy=0;entryX=0;entryY=0.5;entryDx=0;entryDy=0;" edge="1" parent="WIyWlLk6GJQsqaUBKTNV-1" source="SPDf7aLE5SCh02iu1pOM-41" target="SPDf7aLE5SCh02iu1pOM-48">
          <mxGeometry relative="1" as="geometry">
            <Array as="points">
              <mxPoint x="186" y="980" />
            </Array>
          </mxGeometry>
        </mxCell>
        <mxCell id="SPDf7aLE5SCh02iu1pOM-41" value="Nhân giá trị số với -1" style="whiteSpace=wrap;html=1;" vertex="1" parent="WIyWlLk6GJQsqaUBKTNV-1">
          <mxGeometry x="118.5" y="810" width="135" height="60" as="geometry" />
        </mxCell>
        <mxCell id="SPDf7aLE5SCh02iu1pOM-43" value="Kết thúc chương trình" style="strokeWidth=2;html=1;shape=mxgraph.flowchart.terminator;whiteSpace=wrap;" vertex="1" parent="WIyWlLk6GJQsqaUBKTNV-1">
          <mxGeometry x="111" y="530" width="150" height="60" as="geometry" />
        </mxCell>
        <mxCell id="SPDf7aLE5SCh02iu1pOM-44" style="edgeStyle=orthogonalEdgeStyle;rounded=0;orthogonalLoop=1;jettySize=auto;html=1;exitX=0.5;exitY=1;exitDx=0;exitDy=0;entryX=0.5;entryY=0;entryDx=0;entryDy=0;entryPerimeter=0;" edge="1" parent="WIyWlLk6GJQsqaUBKTNV-1" target="SPDf7aLE5SCh02iu1pOM-43">
          <mxGeometry relative="1" as="geometry">
            <mxPoint x="186" y="460" as="sourcePoint" />
          </mxGeometry>
        </mxCell>
        <mxCell id="SPDf7aLE5SCh02iu1pOM-46" style="edgeStyle=orthogonalEdgeStyle;rounded=0;orthogonalLoop=1;jettySize=auto;html=1;exitX=0.5;exitY=1;exitDx=0;exitDy=0;exitPerimeter=0;entryX=0.5;entryY=0;entryDx=0;entryDy=0;" edge="1" parent="WIyWlLk6GJQsqaUBKTNV-1" source="SPDf7aLE5SCh02iu1pOM-45" target="SPDf7aLE5SCh02iu1pOM-3">
          <mxGeometry relative="1" as="geometry" />
        </mxCell>
        <mxCell id="SPDf7aLE5SCh02iu1pOM-45" value="Bắt đầu chương trình" style="strokeWidth=2;html=1;shape=mxgraph.flowchart.terminator;whiteSpace=wrap;" vertex="1" parent="WIyWlLk6GJQsqaUBKTNV-1">
          <mxGeometry x="366" y="30" width="150" height="60" as="geometry" />
        </mxCell>
        <mxCell id="SPDf7aLE5SCh02iu1pOM-48" value="In ra giá trị số nguyên" style="shape=parallelogram;perimeter=parallelogramPerimeter;whiteSpace=wrap;html=1;fixedSize=1;" vertex="1" parent="WIyWlLk6GJQsqaUBKTNV-1">
          <mxGeometry x="361" y="950" width="160" height="60" as="geometry" />
        </mxCell>
        <mxCell id="SPDf7aLE5SCh02iu1pOM-49" value="" style="edgeStyle=orthogonalEdgeStyle;rounded=0;orthogonalLoop=1;jettySize=auto;html=1;exitX=0.5;exitY=1;exitDx=0;exitDy=0;entryX=0.5;entryY=0;entryDx=0;entryDy=0;" edge="1" parent="WIyWlLk6GJQsqaUBKTNV-1" source="SPDf7aLE5SCh02iu1pOM-6" target="SPDf7aLE5SCh02iu1pOM-14">
          <mxGeometry relative="1" as="geometry">
            <mxPoint x="661" y="310" as="sourcePoint" />
            <mxPoint x="441" y="450" as="targetPoint" />
            <Array as="points">
              <mxPoint x="666" y="390" />
            </Array>
          </mxGeometry>
        </mxCell>
        <mxCell id="SPDf7aLE5SCh02iu1pOM-14" value="Ký tự là ký tự &lt;br&gt;số từ &quot;0&quot; đến &quot;9&quot;" style="rhombus;whiteSpace=wrap;html=1;" vertex="1" parent="WIyWlLk6GJQsqaUBKTNV-1">
          <mxGeometry x="361" y="390" width="160" height="80" as="geometry" />
        </mxCell>
        <mxCell id="SPDf7aLE5SCh02iu1pOM-52" value="Kết thúc chương trình" style="strokeWidth=2;html=1;shape=mxgraph.flowchart.terminator;whiteSpace=wrap;" vertex="1" parent="WIyWlLk6GJQsqaUBKTNV-1">
          <mxGeometry x="366" y="1080" width="150" height="60" as="geometry" />
        </mxCell>
        <mxCell id="SPDf7aLE5SCh02iu1pOM-53" style="edgeStyle=orthogonalEdgeStyle;rounded=0;orthogonalLoop=1;jettySize=auto;html=1;exitX=0.5;exitY=1;exitDx=0;exitDy=0;entryX=0.5;entryY=0;entryDx=0;entryDy=0;entryPerimeter=0;" edge="1" parent="WIyWlLk6GJQsqaUBKTNV-1" source="SPDf7aLE5SCh02iu1pOM-48" target="SPDf7aLE5SCh02iu1pOM-52">
          <mxGeometry relative="1" as="geometry" />
        </mxCell>
      </root>
    </mxGraphModel>
  </diagram>
</mxfile>
